<svg data-v-fde0c5aa="" xmlns="http://www.w3.org/2000/svg" viewBox="0 0 300 300" class="iconLeft"><!----><defs data-v-fde0c5aa=""><linearGradient data-v-fde0c5aa="" gradientTransform="rotate(25)" id="a82e8742-0c2a-4866-90eb-ad1d1972d24b" x1="0%" y1="0%" x2="100%" y2="0%"><stop data-v-fde0c5aa="" offset="0%" stop-color="#20484F" stop-opacity="1"></stop><stop data-v-fde0c5aa="" offset="100%" stop-color="#4E9BAB" stop-opacity="1"></stop></linearGradient></defs><rect data-v-fde0c5aa="" fill="url(#a82e8742-0c2a-4866-90eb-ad1d1972d24b)" x="0" y="0" width="300px" height="300px" class="logo-background-square"></rect><defs data-v-fde0c5aa=""><!----></defs><g data-v-fde0c5aa="" id="646ef7cf-a21a-4987-bb15-4d6a0b8c48e2" fill="#ffffff" transform="matrix(3.8621746405650184,0,0,3.8621746405650184,99.68114313797021,115.33698112762625)"><path d="M1.15 3.98L1.15 13.78L4.05 13.78C6.51 13.78 7.98 12.63 7.98 9.87L7.98 7.88C7.98 5.12 6.51 3.98 4.05 3.98ZM1.90 4.65L4.00 4.65C6.17 4.65 7.22 5.46 7.22 7.81L7.22 9.94C7.22 12.29 6.23 13.10 4.00 13.10L1.90 13.10ZM10.02 3.98L10.02 13.78L13.83 13.78C15.51 13.78 16.77 12.84 16.77 11.19C16.77 9.86 15.83 9.10 14.99 8.93L14.99 8.76C15.79 8.54 16.77 7.85 16.77 6.51C16.77 4.94 15.53 3.98 13.89 3.98ZM10.78 4.65L13.83 4.65C15.18 4.65 16.02 5.43 16.02 6.54C16.02 7.69 15.23 8.51 13.86 8.51L10.78 8.51ZM10.78 9.18L13.78 9.18C15.26 9.18 16.02 9.95 16.02 11.13C16.02 12.25 15.26 13.10 13.86 13.10L10.78 13.10ZM18.42 8.82L19.04 9.10C19.54 8.04 20.30 7.28 21.69 7.28C23.10 7.28 23.94 8.04 23.94 9.23L23.94 9.81L20.73 10.11C19.43 10.23 18.37 10.81 18.37 11.94C18.37 13.20 19.40 13.97 20.94 13.97C22.58 13.97 23.39 13.19 23.77 12.45L23.94 12.45L23.94 13.78L24.64 13.78L24.64 9.28C24.64 7.67 23.56 6.64 21.71 6.64C19.96 6.64 18.90 7.73 18.42 8.82ZM19.07 11.97C19.07 11.27 19.67 10.81 20.87 10.70L23.94 10.42L23.94 10.53C23.94 12.33 22.68 13.36 20.97 13.36C19.84 13.36 19.07 12.88 19.07 11.97ZM26.85 6.83L26.85 13.78L27.55 13.78L27.55 10.22C27.55 8.29 28.66 7.34 30.10 7.34C31.40 7.34 32.26 7.98 32.26 9.52L32.26 13.78L32.96 13.78L32.96 9.46C32.96 7.57 31.67 6.69 30.24 6.69C28.81 6.69 28.10 7.41 27.72 8.12L27.52 8.12L27.52 6.83ZM41.51 6.83L40.35 6.83L36.04 10.50L35.87 10.50L35.87 3.98L35.17 3.98L35.17 13.78L35.87 13.78L35.87 11.51L37.80 9.91L40.61 13.78L41.47 13.78L38.32 9.48Z"></path></g><defs data-v-fde0c5aa=""><!----></defs><g data-v-fde0c5aa="" id="7f353bbe-de22-441d-b8f8-8aba896c2b6b" stroke="none" fill="#ffffff" transform="matrix(0.6430521243086611,0,0,0.6430521243086611,33.24795269475906,118.81197197102995)"><path d="M13 53.75A1.25 1.25 0 0 1 11.75 55a1.25 1.25 0 0 1-1.25-1.25 1.25 1.25 0 0 1 1.25-1.25A1.25 1.25 0 0 1 13 53.75zM13 57.25a1.25 1.25 0 0 1-1.25 1.25 1.25 1.25 0 0 1-1.25-1.25A1.25 1.25 0 0 1 11.75 56 1.25 1.25 0 0 1 13 57.25zM13 60.75A1.25 1.25 0 0 1 11.75 62a1.25 1.25 0 0 1-1.25-1.25 1.25 1.25 0 0 1 1.25-1.25A1.25 1.25 0 0 1 13 60.75zM13 64.25a1.25 1.25 0 0 1-1.25 1.25 1.25 1.25 0 0 1-1.25-1.25A1.25 1.25 0 0 1 11.75 63 1.25 1.25 0 0 1 13 64.25zM13 67.75A1.25 1.25 0 0 1 11.75 69a1.25 1.25 0 0 1-1.25-1.25 1.25 1.25 0 0 1 1.25-1.25A1.25 1.25 0 0 1 13 67.75zM13 71.25a1.25 1.25 0 0 1-1.25 1.25 1.25 1.25 0 0 1-1.25-1.25A1.25 1.25 0 0 1 11.75 70 1.25 1.25 0 0 1 13 71.25zM13 74.75A1.25 1.25 0 0 1 11.75 76a1.25 1.25 0 0 1-1.25-1.25 1.25 1.25 0 0 1 1.25-1.25A1.25 1.25 0 0 1 13 74.75zM13 78.25a1.25 1.25 0 0 1-1.25 1.25 1.25 1.25 0 0 1-1.25-1.25A1.25 1.25 0 0 1 11.75 77 1.25 1.25 0 0 1 13 78.25zM13 81.75A1.25 1.25 0 0 1 11.75 83a1.25 1.25 0 0 1-1.25-1.25 1.25 1.25 0 0 1 1.25-1.25A1.25 1.25 0 0 1 13 81.75zM13 85.25a1.25 1.25 0 0 1-1.25 1.25 1.25 1.25 0 0 1-1.25-1.25A1.25 1.25 0 0 1 11.75 84 1.25 1.25 0 0 1 13 85.25zM13 88.75A1.25 1.25 0 0 1 11.75 90a1.25 1.25 0 0 1-1.25-1.25 1.25 1.25 0 0 1 1.25-1.25A1.25 1.25 0 0 1 13 88.75zM13 92.25a1.25 1.25 0 0 1-1.25 1.25 1.25 1.25 0 0 1-1.25-1.25A1.25 1.25 0 0 1 11.75 91 1.25 1.25 0 0 1 13 92.25zM16.5 50.25a1.25 1.25 0 0 1-1.25 1.25A1.25 1.25 0 0 1 14 50.25 1.25 1.25 0 0 1 15.25 49a1.25 1.25 0 0 1 1.25 1.25zM16.5 53.75A1.25 1.25 0 0 1 15.25 55 1.25 1.25 0 0 1 14 53.75a1.25 1.25 0 0 1 1.25-1.25 1.25 1.25 0 0 1 1.25 1.25zM16.5 57.25a1.25 1.25 0 0 1-1.25 1.25A1.25 1.25 0 0 1 14 57.25 1.25 1.25 0 0 1 15.25 56a1.25 1.25 0 0 1 1.25 1.25zM16.5 60.75A1.25 1.25 0 0 1 15.25 62 1.25 1.25 0 0 1 14 60.75a1.25 1.25 0 0 1 1.25-1.25 1.25 1.25 0 0 1 1.25 1.25zM16.5 64.25a1.25 1.25 0 0 1-1.25 1.25A1.25 1.25 0 0 1 14 64.25 1.25 1.25 0 0 1 15.25 63a1.25 1.25 0 0 1 1.25 1.25zM16.5 67.75A1.25 1.25 0 0 1 15.25 69 1.25 1.25 0 0 1 14 67.75a1.25 1.25 0 0 1 1.25-1.25 1.25 1.25 0 0 1 1.25 1.25zM16.5 71.25a1.25 1.25 0 0 1-1.25 1.25A1.25 1.25 0 0 1 14 71.25 1.25 1.25 0 0 1 15.25 70a1.25 1.25 0 0 1 1.25 1.25zM16.5 74.75A1.25 1.25 0 0 1 15.25 76 1.25 1.25 0 0 1 14 74.75a1.25 1.25 0 0 1 1.25-1.25 1.25 1.25 0 0 1 1.25 1.25zM16.5 78.25a1.25 1.25 0 0 1-1.25 1.25A1.25 1.25 0 0 1 14 78.25 1.25 1.25 0 0 1 15.25 77a1.25 1.25 0 0 1 1.25 1.25zM16.5 81.75A1.25 1.25 0 0 1 15.25 83 1.25 1.25 0 0 1 14 81.75a1.25 1.25 0 0 1 1.25-1.25 1.25 1.25 0 0 1 1.25 1.25zM16.5 85.25a1.25 1.25 0 0 1-1.25 1.25A1.25 1.25 0 0 1 14 85.25 1.25 1.25 0 0 1 15.25 84a1.25 1.25 0 0 1 1.25 1.25zM16.5 88.75A1.25 1.25 0 0 1 15.25 90 1.25 1.25 0 0 1 14 88.75a1.25 1.25 0 0 1 1.25-1.25 1.25 1.25 0 0 1 1.25 1.25zM16.5 92.25a1.25 1.25 0 0 1-1.25 1.25A1.25 1.25 0 0 1 14 92.25 1.25 1.25 0 0 1 15.25 91a1.25 1.25 0 0 1 1.25 1.25zM20 50.25a1.25 1.25 0 0 1-1.25 1.25 1.25 1.25 0 0 1-1.25-1.25A1.25 1.25 0 0 1 18.75 49 1.25 1.25 0 0 1 20 50.25zM20 53.75A1.25 1.25 0 0 1 18.75 55a1.25 1.25 0 0 1-1.25-1.25 1.25 1.25 0 0 1 1.25-1.25A1.25 1.25 0 0 1 20 53.75zM20 57.25a1.25 1.25 0 0 1-1.25 1.25 1.25 1.25 0 0 1-1.25-1.25A1.25 1.25 0 0 1 18.75 56 1.25 1.25 0 0 1 20 57.25zM20 60.75A1.25 1.25 0 0 1 18.75 62a1.25 1.25 0 0 1-1.25-1.25 1.25 1.25 0 0 1 1.25-1.25A1.25 1.25 0 0 1 20 60.75zM20 64.25a1.25 1.25 0 0 1-1.25 1.25 1.25 1.25 0 0 1-1.25-1.25A1.25 1.25 0 0 1 18.75 63 1.25 1.25 0 0 1 20 64.25zM20 67.75A1.25 1.25 0 0 1 18.75 69a1.25 1.25 0 0 1-1.25-1.25 1.25 1.25 0 0 1 1.25-1.25A1.25 1.25 0 0 1 20 67.75zM20 71.25a1.25 1.25 0 0 1-1.25 1.25 1.25 1.25 0 0 1-1.25-1.25A1.25 1.25 0 0 1 18.75 70 1.25 1.25 0 0 1 20 71.25zM20 74.75A1.25 1.25 0 0 1 18.75 76a1.25 1.25 0 0 1-1.25-1.25 1.25 1.25 0 0 1 1.25-1.25A1.25 1.25 0 0 1 20 74.75zM20 78.25a1.25 1.25 0 0 1-1.25 1.25 1.25 1.25 0 0 1-1.25-1.25A1.25 1.25 0 0 1 18.75 77 1.25 1.25 0 0 1 20 78.25zM20 81.75A1.25 1.25 0 0 1 18.75 83a1.25 1.25 0 0 1-1.25-1.25 1.25 1.25 0 0 1 1.25-1.25A1.25 1.25 0 0 1 20 81.75zM20 85.25a1.25 1.25 0 0 1-1.25 1.25 1.25 1.25 0 0 1-1.25-1.25A1.25 1.25 0 0 1 18.75 84 1.25 1.25 0 0 1 20 85.25zM20 88.75A1.25 1.25 0 0 1 18.75 90a1.25 1.25 0 0 1-1.25-1.25 1.25 1.25 0 0 1 1.25-1.25A1.25 1.25 0 0 1 20 88.75zM20 92.25a1.25 1.25 0 0 1-1.25 1.25 1.25 1.25 0 0 1-1.25-1.25A1.25 1.25 0 0 1 18.75 91 1.25 1.25 0 0 1 20 92.25zM23.5 43.25a1.25 1.25 0 0 1-1.25 1.25A1.25 1.25 0 0 1 21 43.25 1.25 1.25 0 0 1 22.25 42a1.25 1.25 0 0 1 1.25 1.25zM23.5 46.75A1.25 1.25 0 0 1 22.25 48 1.25 1.25 0 0 1 21 46.75a1.25 1.25 0 0 1 1.25-1.25 1.25 1.25 0 0 1 1.25 1.25zM23.5 50.25a1.25 1.25 0 0 1-1.25 1.25A1.25 1.25 0 0 1 21 50.25 1.25 1.25 0 0 1 22.25 49a1.25 1.25 0 0 1 1.25 1.25zM23.5 53.75A1.25 1.25 0 0 1 22.25 55 1.25 1.25 0 0 1 21 53.75a1.25 1.25 0 0 1 1.25-1.25 1.25 1.25 0 0 1 1.25 1.25zM23.5 57.25a1.25 1.25 0 0 1-1.25 1.25A1.25 1.25 0 0 1 21 57.25 1.25 1.25 0 0 1 22.25 56a1.25 1.25 0 0 1 1.25 1.25zM23.5 60.75A1.25 1.25 0 0 1 22.25 62 1.25 1.25 0 0 1 21 60.75a1.25 1.25 0 0 1 1.25-1.25 1.25 1.25 0 0 1 1.25 1.25zM23.5 64.25a1.25 1.25 0 0 1-1.25 1.25A1.25 1.25 0 0 1 21 64.25 1.25 1.25 0 0 1 22.25 63a1.25 1.25 0 0 1 1.25 1.25zM23.5 67.75A1.25 1.25 0 0 1 22.25 69 1.25 1.25 0 0 1 21 67.75a1.25 1.25 0 0 1 1.25-1.25 1.25 1.25 0 0 1 1.25 1.25zM23.5 71.25a1.25 1.25 0 0 1-1.25 1.25A1.25 1.25 0 0 1 21 71.25 1.25 1.25 0 0 1 22.25 70a1.25 1.25 0 0 1 1.25 1.25zM23.5 74.75A1.25 1.25 0 0 1 22.25 76 1.25 1.25 0 0 1 21 74.75a1.25 1.25 0 0 1 1.25-1.25 1.25 1.25 0 0 1 1.25 1.25zM23.5 78.25a1.25 1.25 0 0 1-1.25 1.25A1.25 1.25 0 0 1 21 78.25 1.25 1.25 0 0 1 22.25 77a1.25 1.25 0 0 1 1.25 1.25zM23.5 81.75A1.25 1.25 0 0 1 22.25 83 1.25 1.25 0 0 1 21 81.75a1.25 1.25 0 0 1 1.25-1.25 1.25 1.25 0 0 1 1.25 1.25zM23.5 85.25a1.25 1.25 0 0 1-1.25 1.25A1.25 1.25 0 0 1 21 85.25 1.25 1.25 0 0 1 22.25 84a1.25 1.25 0 0 1 1.25 1.25zM23.5 88.75A1.25 1.25 0 0 1 22.25 90 1.25 1.25 0 0 1 21 88.75a1.25 1.25 0 0 1 1.25-1.25 1.25 1.25 0 0 1 1.25 1.25zM23.5 92.25a1.25 1.25 0 0 1-1.25 1.25A1.25 1.25 0 0 1 21 92.25 1.25 1.25 0 0 1 22.25 91a1.25 1.25 0 0 1 1.25 1.25zM27 39.75A1.25 1.25 0 0 1 25.75 41a1.25 1.25 0 0 1-1.25-1.25 1.25 1.25 0 0 1 1.25-1.25A1.25 1.25 0 0 1 27 39.75zM27 43.25a1.25 1.25 0 0 1-1.25 1.25 1.25 1.25 0 0 1-1.25-1.25A1.25 1.25 0 0 1 25.75 42 1.25 1.25 0 0 1 27 43.25zM27 46.75A1.25 1.25 0 0 1 25.75 48a1.25 1.25 0 0 1-1.25-1.25 1.25 1.25 0 0 1 1.25-1.25A1.25 1.25 0 0 1 27 46.75zM27 50.25a1.25 1.25 0 0 1-1.25 1.25 1.25 1.25 0 0 1-1.25-1.25A1.25 1.25 0 0 1 25.75 49 1.25 1.25 0 0 1 27 50.25zM27 53.75A1.25 1.25 0 0 1 25.75 55a1.25 1.25 0 0 1-1.25-1.25 1.25 1.25 0 0 1 1.25-1.25A1.25 1.25 0 0 1 27 53.75zM27 57.25a1.25 1.25 0 0 1-1.25 1.25 1.25 1.25 0 0 1-1.25-1.25A1.25 1.25 0 0 1 25.75 56 1.25 1.25 0 0 1 27 57.25zM27 60.75A1.25 1.25 0 0 1 25.75 62a1.25 1.25 0 0 1-1.25-1.25 1.25 1.25 0 0 1 1.25-1.25A1.25 1.25 0 0 1 27 60.75zM27 64.25a1.25 1.25 0 0 1-1.25 1.25 1.25 1.25 0 0 1-1.25-1.25A1.25 1.25 0 0 1 25.75 63 1.25 1.25 0 0 1 27 64.25zM27 67.75A1.25 1.25 0 0 1 25.75 69a1.25 1.25 0 0 1-1.25-1.25 1.25 1.25 0 0 1 1.25-1.25A1.25 1.25 0 0 1 27 67.75zM27 71.25a1.25 1.25 0 0 1-1.25 1.25 1.25 1.25 0 0 1-1.25-1.25A1.25 1.25 0 0 1 25.75 70 1.25 1.25 0 0 1 27 71.25zM27 74.75A1.25 1.25 0 0 1 25.75 76a1.25 1.25 0 0 1-1.25-1.25 1.25 1.25 0 0 1 1.25-1.25A1.25 1.25 0 0 1 27 74.75zM27 78.25a1.25 1.25 0 0 1-1.25 1.25 1.25 1.25 0 0 1-1.25-1.25A1.25 1.25 0 0 1 25.75 77 1.25 1.25 0 0 1 27 78.25zM27 81.75A1.25 1.25 0 0 1 25.75 83a1.25 1.25 0 0 1-1.25-1.25 1.25 1.25 0 0 1 1.25-1.25A1.25 1.25 0 0 1 27 81.75zM27 85.25a1.25 1.25 0 0 1-1.25 1.25 1.25 1.25 0 0 1-1.25-1.25A1.25 1.25 0 0 1 25.75 84 1.25 1.25 0 0 1 27 85.25zM27 88.75A1.25 1.25 0 0 1 25.75 90a1.25 1.25 0 0 1-1.25-1.25 1.25 1.25 0 0 1 1.25-1.25A1.25 1.25 0 0 1 27 88.75zM30.5 32.75A1.25 1.25 0 0 1 29.25 34 1.25 1.25 0 0 1 28 32.75a1.25 1.25 0 0 1 1.25-1.25 1.25 1.25 0 0 1 1.25 1.25zM30.5 36.25a1.25 1.25 0 0 1-1.25 1.25A1.25 1.25 0 0 1 28 36.25 1.25 1.25 0 0 1 29.25 35a1.25 1.25 0 0 1 1.25 1.25zM30.5 39.75A1.25 1.25 0 0 1 29.25 41 1.25 1.25 0 0 1 28 39.75a1.25 1.25 0 0 1 1.25-1.25 1.25 1.25 0 0 1 1.25 1.25zM30.5 43.25a1.25 1.25 0 0 1-1.25 1.25A1.25 1.25 0 0 1 28 43.25 1.25 1.25 0 0 1 29.25 42a1.25 1.25 0 0 1 1.25 1.25zM30.5 46.75A1.25 1.25 0 0 1 29.25 48 1.25 1.25 0 0 1 28 46.75a1.25 1.25 0 0 1 1.25-1.25 1.25 1.25 0 0 1 1.25 1.25zM30.5 50.25a1.25 1.25 0 0 1-1.25 1.25A1.25 1.25 0 0 1 28 50.25 1.25 1.25 0 0 1 29.25 49a1.25 1.25 0 0 1 1.25 1.25zM30.5 53.75A1.25 1.25 0 0 1 29.25 55 1.25 1.25 0 0 1 28 53.75a1.25 1.25 0 0 1 1.25-1.25 1.25 1.25 0 0 1 1.25 1.25zM30.5 57.25a1.25 1.25 0 0 1-1.25 1.25A1.25 1.25 0 0 1 28 57.25 1.25 1.25 0 0 1 29.25 56a1.25 1.25 0 0 1 1.25 1.25zM30.5 60.75A1.25 1.25 0 0 1 29.25 62 1.25 1.25 0 0 1 28 60.75a1.25 1.25 0 0 1 1.25-1.25 1.25 1.25 0 0 1 1.25 1.25zM30.5 64.25a1.25 1.25 0 0 1-1.25 1.25A1.25 1.25 0 0 1 28 64.25 1.25 1.25 0 0 1 29.25 63a1.25 1.25 0 0 1 1.25 1.25zM30.5 67.75A1.25 1.25 0 0 1 29.25 69 1.25 1.25 0 0 1 28 67.75a1.25 1.25 0 0 1 1.25-1.25 1.25 1.25 0 0 1 1.25 1.25zM30.5 71.25a1.25 1.25 0 0 1-1.25 1.25A1.25 1.25 0 0 1 28 71.25 1.25 1.25 0 0 1 29.25 70a1.25 1.25 0 0 1 1.25 1.25zM30.5 74.75A1.25 1.25 0 0 1 29.25 76 1.25 1.25 0 0 1 28 74.75a1.25 1.25 0 0 1 1.25-1.25 1.25 1.25 0 0 1 1.25 1.25zM30.5 78.25a1.25 1.25 0 0 1-1.25 1.25A1.25 1.25 0 0 1 28 78.25 1.25 1.25 0 0 1 29.25 77a1.25 1.25 0 0 1 1.25 1.25zM30.5 81.75A1.25 1.25 0 0 1 29.25 83 1.25 1.25 0 0 1 28 81.75a1.25 1.25 0 0 1 1.25-1.25 1.25 1.25 0 0 1 1.25 1.25zM30.5 85.25a1.25 1.25 0 0 1-1.25 1.25A1.25 1.25 0 0 1 28 85.25 1.25 1.25 0 0 1 29.25 84a1.25 1.25 0 0 1 1.25 1.25zM30.5 88.75A1.25 1.25 0 0 1 29.25 90 1.25 1.25 0 0 1 28 88.75a1.25 1.25 0 0 1 1.25-1.25 1.25 1.25 0 0 1 1.25 1.25zM30.5 92.25a1.25 1.25 0 0 1-1.25 1.25A1.25 1.25 0 0 1 28 92.25 1.25 1.25 0 0 1 29.25 91a1.25 1.25 0 0 1 1.25 1.25zM34 29.25a1.25 1.25 0 0 1-1.25 1.25 1.25 1.25 0 0 1-1.25-1.25A1.25 1.25 0 0 1 32.75 28 1.25 1.25 0 0 1 34 29.25zM34 32.75A1.25 1.25 0 0 1 32.75 34a1.25 1.25 0 0 1-1.25-1.25 1.25 1.25 0 0 1 1.25-1.25A1.25 1.25 0 0 1 34 32.75zM34 36.25a1.25 1.25 0 0 1-1.25 1.25 1.25 1.25 0 0 1-1.25-1.25A1.25 1.25 0 0 1 32.75 35 1.25 1.25 0 0 1 34 36.25zM34 39.75A1.25 1.25 0 0 1 32.75 41a1.25 1.25 0 0 1-1.25-1.25 1.25 1.25 0 0 1 1.25-1.25A1.25 1.25 0 0 1 34 39.75zM34 43.25a1.25 1.25 0 0 1-1.25 1.25 1.25 1.25 0 0 1-1.25-1.25A1.25 1.25 0 0 1 32.75 42 1.25 1.25 0 0 1 34 43.25zM34 46.75A1.25 1.25 0 0 1 32.75 48a1.25 1.25 0 0 1-1.25-1.25 1.25 1.25 0 0 1 1.25-1.25A1.25 1.25 0 0 1 34 46.75zM34 50.25a1.25 1.25 0 0 1-1.25 1.25 1.25 1.25 0 0 1-1.25-1.25A1.25 1.25 0 0 1 32.75 49 1.25 1.25 0 0 1 34 50.25zM34 53.75A1.25 1.25 0 0 1 32.75 55a1.25 1.25 0 0 1-1.25-1.25 1.25 1.25 0 0 1 1.25-1.25A1.25 1.25 0 0 1 34 53.75zM34 57.25a1.25 1.25 0 0 1-1.25 1.25 1.25 1.25 0 0 1-1.25-1.25A1.25 1.25 0 0 1 32.75 56 1.25 1.25 0 0 1 34 57.25zM34 60.75A1.25 1.25 0 0 1 32.75 62a1.25 1.25 0 0 1-1.25-1.25 1.25 1.25 0 0 1 1.25-1.25A1.25 1.25 0 0 1 34 60.75zM34 64.25a1.25 1.25 0 0 1-1.25 1.25 1.25 1.25 0 0 1-1.25-1.25A1.25 1.25 0 0 1 32.75 63 1.25 1.25 0 0 1 34 64.25zM34 67.75A1.25 1.25 0 0 1 32.75 69a1.25 1.25 0 0 1-1.25-1.25 1.25 1.25 0 0 1 1.25-1.25A1.25 1.25 0 0 1 34 67.75zM34 71.25a1.25 1.25 0 0 1-1.25 1.25 1.25 1.25 0 0 1-1.25-1.25A1.25 1.25 0 0 1 32.75 70 1.25 1.25 0 0 1 34 71.25zM34 74.75A1.25 1.25 0 0 1 32.75 76a1.25 1.25 0 0 1-1.25-1.25 1.25 1.25 0 0 1 1.25-1.25A1.25 1.25 0 0 1 34 74.75zM34 78.25a1.25 1.25 0 0 1-1.25 1.25 1.25 1.25 0 0 1-1.25-1.25A1.25 1.25 0 0 1 32.75 77 1.25 1.25 0 0 1 34 78.25zM34 81.75A1.25 1.25 0 0 1 32.75 83a1.25 1.25 0 0 1-1.25-1.25 1.25 1.25 0 0 1 1.25-1.25A1.25 1.25 0 0 1 34 81.75zM34 85.25a1.25 1.25 0 0 1-1.25 1.25 1.25 1.25 0 0 1-1.25-1.25A1.25 1.25 0 0 1 32.75 84 1.25 1.25 0 0 1 34 85.25zM34 88.75A1.25 1.25 0 0 1 32.75 90a1.25 1.25 0 0 1-1.25-1.25 1.25 1.25 0 0 1 1.25-1.25A1.25 1.25 0 0 1 34 88.75zM34 92.25a1.25 1.25 0 0 1-1.25 1.25 1.25 1.25 0 0 1-1.25-1.25A1.25 1.25 0 0 1 32.75 91 1.25 1.25 0 0 1 34 92.25zM37.5 25.75A1.25 1.25 0 0 1 36.25 27 1.25 1.25 0 0 1 35 25.75a1.25 1.25 0 0 1 1.25-1.25 1.25 1.25 0 0 1 1.25 1.25zM37.5 29.25a1.25 1.25 0 0 1-1.25 1.25A1.25 1.25 0 0 1 35 29.25 1.25 1.25 0 0 1 36.25 28a1.25 1.25 0 0 1 1.25 1.25zM37.5 32.75A1.25 1.25 0 0 1 36.25 34 1.25 1.25 0 0 1 35 32.75a1.25 1.25 0 0 1 1.25-1.25 1.25 1.25 0 0 1 1.25 1.25zM37.5 36.25a1.25 1.25 0 0 1-1.25 1.25A1.25 1.25 0 0 1 35 36.25 1.25 1.25 0 0 1 36.25 35a1.25 1.25 0 0 1 1.25 1.25zM37.5 39.75A1.25 1.25 0 0 1 36.25 41 1.25 1.25 0 0 1 35 39.75a1.25 1.25 0 0 1 1.25-1.25 1.25 1.25 0 0 1 1.25 1.25zM37.5 43.25a1.25 1.25 0 0 1-1.25 1.25A1.25 1.25 0 0 1 35 43.25 1.25 1.25 0 0 1 36.25 42a1.25 1.25 0 0 1 1.25 1.25zM37.5 46.75A1.25 1.25 0 0 1 36.25 48 1.25 1.25 0 0 1 35 46.75a1.25 1.25 0 0 1 1.25-1.25 1.25 1.25 0 0 1 1.25 1.25zM37.5 50.25a1.25 1.25 0 0 1-1.25 1.25A1.25 1.25 0 0 1 35 50.25 1.25 1.25 0 0 1 36.25 49a1.25 1.25 0 0 1 1.25 1.25zM37.5 53.75A1.25 1.25 0 0 1 36.25 55 1.25 1.25 0 0 1 35 53.75a1.25 1.25 0 0 1 1.25-1.25 1.25 1.25 0 0 1 1.25 1.25zM37.5 57.25a1.25 1.25 0 0 1-1.25 1.25A1.25 1.25 0 0 1 35 57.25 1.25 1.25 0 0 1 36.25 56a1.25 1.25 0 0 1 1.25 1.25zM37.5 60.75A1.25 1.25 0 0 1 36.25 62 1.25 1.25 0 0 1 35 60.75a1.25 1.25 0 0 1 1.25-1.25 1.25 1.25 0 0 1 1.25 1.25zM37.5 64.25a1.25 1.25 0 0 1-1.25 1.25A1.25 1.25 0 0 1 35 64.25 1.25 1.25 0 0 1 36.25 63a1.25 1.25 0 0 1 1.25 1.25zM37.5 67.75A1.25 1.25 0 0 1 36.25 69 1.25 1.25 0 0 1 35 67.75a1.25 1.25 0 0 1 1.25-1.25 1.25 1.25 0 0 1 1.25 1.25zM37.5 71.25a1.25 1.25 0 0 1-1.25 1.25A1.25 1.25 0 0 1 35 71.25 1.25 1.25 0 0 1 36.25 70a1.25 1.25 0 0 1 1.25 1.25zM37.5 74.75A1.25 1.25 0 0 1 36.25 76 1.25 1.25 0 0 1 35 74.75a1.25 1.25 0 0 1 1.25-1.25 1.25 1.25 0 0 1 1.25 1.25zM37.5 78.25a1.25 1.25 0 0 1-1.25 1.25A1.25 1.25 0 0 1 35 78.25 1.25 1.25 0 0 1 36.25 77a1.25 1.25 0 0 1 1.25 1.25zM37.5 81.75A1.25 1.25 0 0 1 36.25 83 1.25 1.25 0 0 1 35 81.75a1.25 1.25 0 0 1 1.25-1.25 1.25 1.25 0 0 1 1.25 1.25zM37.5 85.25a1.25 1.25 0 0 1-1.25 1.25A1.25 1.25 0 0 1 35 85.25 1.25 1.25 0 0 1 36.25 84a1.25 1.25 0 0 1 1.25 1.25zM37.5 88.75A1.25 1.25 0 0 1 36.25 90 1.25 1.25 0 0 1 35 88.75a1.25 1.25 0 0 1 1.25-1.25 1.25 1.25 0 0 1 1.25 1.25zM41 18.75A1.25 1.25 0 0 1 39.75 20a1.25 1.25 0 0 1-1.25-1.25 1.25 1.25 0 0 1 1.25-1.25A1.25 1.25 0 0 1 41 18.75zM41 22.25a1.25 1.25 0 0 1-1.25 1.25 1.25 1.25 0 0 1-1.25-1.25A1.25 1.25 0 0 1 39.75 21 1.25 1.25 0 0 1 41 22.25zM41 25.75A1.25 1.25 0 0 1 39.75 27a1.25 1.25 0 0 1-1.25-1.25 1.25 1.25 0 0 1 1.25-1.25A1.25 1.25 0 0 1 41 25.75zM41 29.25a1.25 1.25 0 0 1-1.25 1.25 1.25 1.25 0 0 1-1.25-1.25A1.25 1.25 0 0 1 39.75 28 1.25 1.25 0 0 1 41 29.25zM41 32.75A1.25 1.25 0 0 1 39.75 34a1.25 1.25 0 0 1-1.25-1.25 1.25 1.25 0 0 1 1.25-1.25A1.25 1.25 0 0 1 41 32.75zM41 36.25a1.25 1.25 0 0 1-1.25 1.25 1.25 1.25 0 0 1-1.25-1.25A1.25 1.25 0 0 1 39.75 35 1.25 1.25 0 0 1 41 36.25zM41 39.75A1.25 1.25 0 0 1 39.75 41a1.25 1.25 0 0 1-1.25-1.25 1.25 1.25 0 0 1 1.25-1.25A1.25 1.25 0 0 1 41 39.75zM41 43.25a1.25 1.25 0 0 1-1.25 1.25 1.25 1.25 0 0 1-1.25-1.25A1.25 1.25 0 0 1 39.75 42 1.25 1.25 0 0 1 41 43.25zM41 46.75A1.25 1.25 0 0 1 39.75 48a1.25 1.25 0 0 1-1.25-1.25 1.25 1.25 0 0 1 1.25-1.25A1.25 1.25 0 0 1 41 46.75zM41 50.25a1.25 1.25 0 0 1-1.25 1.25 1.25 1.25 0 0 1-1.25-1.25A1.25 1.25 0 0 1 39.75 49 1.25 1.25 0 0 1 41 50.25zM41 53.75A1.25 1.25 0 0 1 39.75 55a1.25 1.25 0 0 1-1.25-1.25 1.25 1.25 0 0 1 1.25-1.25A1.25 1.25 0 0 1 41 53.75zM41 57.25a1.25 1.25 0 0 1-1.25 1.25 1.25 1.25 0 0 1-1.25-1.25A1.25 1.25 0 0 1 39.75 56 1.25 1.25 0 0 1 41 57.25zM41 60.75A1.25 1.25 0 0 1 39.75 62a1.25 1.25 0 0 1-1.25-1.25 1.25 1.25 0 0 1 1.25-1.25A1.25 1.25 0 0 1 41 60.75zM41 64.25a1.25 1.25 0 0 1-1.25 1.25 1.25 1.25 0 0 1-1.25-1.25A1.25 1.25 0 0 1 39.75 63 1.25 1.25 0 0 1 41 64.25zM41 67.75A1.25 1.25 0 0 1 39.75 69a1.25 1.25 0 0 1-1.25-1.25 1.25 1.25 0 0 1 1.25-1.25A1.25 1.25 0 0 1 41 67.75zM41 71.25a1.25 1.25 0 0 1-1.25 1.25 1.25 1.25 0 0 1-1.25-1.25A1.25 1.25 0 0 1 39.75 70 1.25 1.25 0 0 1 41 71.25zM41 74.75A1.25 1.25 0 0 1 39.75 76a1.25 1.25 0 0 1-1.25-1.25 1.25 1.25 0 0 1 1.25-1.25A1.25 1.25 0 0 1 41 74.75zM41 78.25a1.25 1.25 0 0 1-1.25 1.25 1.25 1.25 0 0 1-1.25-1.25A1.25 1.25 0 0 1 39.75 77 1.25 1.25 0 0 1 41 78.25zM41 81.75A1.25 1.25 0 0 1 39.75 83a1.25 1.25 0 0 1-1.25-1.25 1.25 1.25 0 0 1 1.25-1.25A1.25 1.25 0 0 1 41 81.75zM41 85.25a1.25 1.25 0 0 1-1.25 1.25 1.25 1.25 0 0 1-1.25-1.25A1.25 1.25 0 0 1 39.75 84 1.25 1.25 0 0 1 41 85.25zM41 88.75A1.25 1.25 0 0 1 39.75 90a1.25 1.25 0 0 1-1.25-1.25 1.25 1.25 0 0 1 1.25-1.25A1.25 1.25 0 0 1 41 88.75zM44.5 15.25a1.25 1.25 0 0 1-1.25 1.25A1.25 1.25 0 0 1 42 15.25 1.25 1.25 0 0 1 43.25 14a1.25 1.25 0 0 1 1.25 1.25zM44.5 18.75A1.25 1.25 0 0 1 43.25 20 1.25 1.25 0 0 1 42 18.75a1.25 1.25 0 0 1 1.25-1.25 1.25 1.25 0 0 1 1.25 1.25zM44.5 22.25a1.25 1.25 0 0 1-1.25 1.25A1.25 1.25 0 0 1 42 22.25 1.25 1.25 0 0 1 43.25 21a1.25 1.25 0 0 1 1.25 1.25zM44.5 25.75A1.25 1.25 0 0 1 43.25 27 1.25 1.25 0 0 1 42 25.75a1.25 1.25 0 0 1 1.25-1.25 1.25 1.25 0 0 1 1.25 1.25zM44.5 29.25a1.25 1.25 0 0 1-1.25 1.25A1.25 1.25 0 0 1 42 29.25 1.25 1.25 0 0 1 43.25 28a1.25 1.25 0 0 1 1.25 1.25zM44.5 32.75A1.25 1.25 0 0 1 43.25 34 1.25 1.25 0 0 1 42 32.75a1.25 1.25 0 0 1 1.25-1.25 1.25 1.25 0 0 1 1.25 1.25zM44.5 36.25a1.25 1.25 0 0 1-1.25 1.25A1.25 1.25 0 0 1 42 36.25 1.25 1.25 0 0 1 43.25 35a1.25 1.25 0 0 1 1.25 1.25zM44.5 39.75A1.25 1.25 0 0 1 43.25 41 1.25 1.25 0 0 1 42 39.75a1.25 1.25 0 0 1 1.25-1.25 1.25 1.25 0 0 1 1.25 1.25zM44.5 43.25a1.25 1.25 0 0 1-1.25 1.25A1.25 1.25 0 0 1 42 43.25 1.25 1.25 0 0 1 43.25 42a1.25 1.25 0 0 1 1.25 1.25zM44.5 46.75A1.25 1.25 0 0 1 43.25 48 1.25 1.25 0 0 1 42 46.75a1.25 1.25 0 0 1 1.25-1.25 1.25 1.25 0 0 1 1.25 1.25zM44.5 50.25a1.25 1.25 0 0 1-1.25 1.25A1.25 1.25 0 0 1 42 50.25 1.25 1.25 0 0 1 43.25 49a1.25 1.25 0 0 1 1.25 1.25zM44.5 53.75A1.25 1.25 0 0 1 43.25 55 1.25 1.25 0 0 1 42 53.75a1.25 1.25 0 0 1 1.25-1.25 1.25 1.25 0 0 1 1.25 1.25zM44.5 57.25a1.25 1.25 0 0 1-1.25 1.25A1.25 1.25 0 0 1 42 57.25 1.25 1.25 0 0 1 43.25 56a1.25 1.25 0 0 1 1.25 1.25zM44.5 60.75A1.25 1.25 0 0 1 43.25 62 1.25 1.25 0 0 1 42 60.75a1.25 1.25 0 0 1 1.25-1.25 1.25 1.25 0 0 1 1.25 1.25zM44.5 64.25a1.25 1.25 0 0 1-1.25 1.25A1.25 1.25 0 0 1 42 64.25 1.25 1.25 0 0 1 43.25 63a1.25 1.25 0 0 1 1.25 1.25zM44.5 67.75A1.25 1.25 0 0 1 43.25 69 1.25 1.25 0 0 1 42 67.75a1.25 1.25 0 0 1 1.25-1.25 1.25 1.25 0 0 1 1.25 1.25zM44.5 71.25a1.25 1.25 0 0 1-1.25 1.25A1.25 1.25 0 0 1 42 71.25 1.25 1.25 0 0 1 43.25 70a1.25 1.25 0 0 1 1.25 1.25zM44.5 74.75A1.25 1.25 0 0 1 43.25 76 1.25 1.25 0 0 1 42 74.75a1.25 1.25 0 0 1 1.25-1.25 1.25 1.25 0 0 1 1.25 1.25zM44.5 78.25a1.25 1.25 0 0 1-1.25 1.25A1.25 1.25 0 0 1 42 78.25 1.25 1.25 0 0 1 43.25 77a1.25 1.25 0 0 1 1.25 1.25zM44.5 81.75A1.25 1.25 0 0 1 43.25 83 1.25 1.25 0 0 1 42 81.75a1.25 1.25 0 0 1 1.25-1.25 1.25 1.25 0 0 1 1.25 1.25zM44.5 85.25a1.25 1.25 0 0 1-1.25 1.25A1.25 1.25 0 0 1 42 85.25 1.25 1.25 0 0 1 43.25 84a1.25 1.25 0 0 1 1.25 1.25zM44.5 88.75A1.25 1.25 0 0 1 43.25 90 1.25 1.25 0 0 1 42 88.75a1.25 1.25 0 0 1 1.25-1.25 1.25 1.25 0 0 1 1.25 1.25zM48 15.25a1.25 1.25 0 0 1-1.25 1.25 1.25 1.25 0 0 1-1.25-1.25A1.25 1.25 0 0 1 46.75 14 1.25 1.25 0 0 1 48 15.25zM48 18.75A1.25 1.25 0 0 1 46.75 20a1.25 1.25 0 0 1-1.25-1.25 1.25 1.25 0 0 1 1.25-1.25A1.25 1.25 0 0 1 48 18.75zM48 22.25a1.25 1.25 0 0 1-1.25 1.25 1.25 1.25 0 0 1-1.25-1.25A1.25 1.25 0 0 1 46.75 21 1.25 1.25 0 0 1 48 22.25zM48 25.75A1.25 1.25 0 0 1 46.75 27a1.25 1.25 0 0 1-1.25-1.25 1.25 1.25 0 0 1 1.25-1.25A1.25 1.25 0 0 1 48 25.75zM48 29.25a1.25 1.25 0 0 1-1.25 1.25 1.25 1.25 0 0 1-1.25-1.25A1.25 1.25 0 0 1 46.75 28 1.25 1.25 0 0 1 48 29.25zM48 32.75A1.25 1.25 0 0 1 46.75 34a1.25 1.25 0 0 1-1.25-1.25 1.25 1.25 0 0 1 1.25-1.25A1.25 1.25 0 0 1 48 32.75zM48 36.25a1.25 1.25 0 0 1-1.25 1.25 1.25 1.25 0 0 1-1.25-1.25A1.25 1.25 0 0 1 46.75 35 1.25 1.25 0 0 1 48 36.25zM48 39.75A1.25 1.25 0 0 1 46.75 41a1.25 1.25 0 0 1-1.25-1.25 1.25 1.25 0 0 1 1.25-1.25A1.25 1.25 0 0 1 48 39.75zM48 43.25a1.25 1.25 0 0 1-1.25 1.25 1.25 1.25 0 0 1-1.25-1.25A1.25 1.25 0 0 1 46.75 42 1.25 1.25 0 0 1 48 43.25zM48 46.75A1.25 1.25 0 0 1 46.75 48a1.25 1.25 0 0 1-1.25-1.25 1.25 1.25 0 0 1 1.25-1.25A1.25 1.25 0 0 1 48 46.75zM48 50.25a1.25 1.25 0 0 1-1.25 1.25 1.25 1.25 0 0 1-1.25-1.25A1.25 1.25 0 0 1 46.75 49 1.25 1.25 0 0 1 48 50.25zM48 53.75A1.25 1.25 0 0 1 46.75 55a1.25 1.25 0 0 1-1.25-1.25 1.25 1.25 0 0 1 1.25-1.25A1.25 1.25 0 0 1 48 53.75zM48 57.25a1.25 1.25 0 0 1-1.25 1.25 1.25 1.25 0 0 1-1.25-1.25A1.25 1.25 0 0 1 46.75 56 1.25 1.25 0 0 1 48 57.25zM48 60.75A1.25 1.25 0 0 1 46.75 62a1.25 1.25 0 0 1-1.25-1.25 1.25 1.25 0 0 1 1.25-1.25A1.25 1.25 0 0 1 48 60.75zM48 64.25a1.25 1.25 0 0 1-1.25 1.25 1.25 1.25 0 0 1-1.25-1.25A1.25 1.25 0 0 1 46.75 63 1.25 1.25 0 0 1 48 64.25zM48 67.75A1.25 1.25 0 0 1 46.75 69a1.25 1.25 0 0 1-1.25-1.25 1.25 1.25 0 0 1 1.25-1.25A1.25 1.25 0 0 1 48 67.75zM48 71.25a1.25 1.25 0 0 1-1.25 1.25 1.25 1.25 0 0 1-1.25-1.25A1.25 1.25 0 0 1 46.75 70 1.25 1.25 0 0 1 48 71.25zM48 74.75A1.25 1.25 0 0 1 46.75 76a1.25 1.25 0 0 1-1.25-1.25 1.25 1.25 0 0 1 1.25-1.25A1.25 1.25 0 0 1 48 74.75zM48 78.25a1.25 1.25 0 0 1-1.25 1.25 1.25 1.25 0 0 1-1.25-1.25A1.25 1.25 0 0 1 46.75 77 1.25 1.25 0 0 1 48 78.25zM48 81.75A1.25 1.25 0 0 1 46.75 83a1.25 1.25 0 0 1-1.25-1.25 1.25 1.25 0 0 1 1.25-1.25A1.25 1.25 0 0 1 48 81.75zM48 85.25a1.25 1.25 0 0 1-1.25 1.25 1.25 1.25 0 0 1-1.25-1.25A1.25 1.25 0 0 1 46.75 84 1.25 1.25 0 0 1 48 85.25zM48 88.75A1.25 1.25 0 0 1 46.75 90a1.25 1.25 0 0 1-1.25-1.25 1.25 1.25 0 0 1 1.25-1.25A1.25 1.25 0 0 1 48 88.75zM51.5 18.75A1.25 1.25 0 0 1 50.25 20 1.25 1.25 0 0 1 49 18.75a1.25 1.25 0 0 1 1.25-1.25 1.25 1.25 0 0 1 1.25 1.25zM51.5 22.25a1.25 1.25 0 0 1-1.25 1.25A1.25 1.25 0 0 1 49 22.25 1.25 1.25 0 0 1 50.25 21a1.25 1.25 0 0 1 1.25 1.25zM51.5 25.75A1.25 1.25 0 0 1 50.25 27 1.25 1.25 0 0 1 49 25.75a1.25 1.25 0 0 1 1.25-1.25 1.25 1.25 0 0 1 1.25 1.25zM51.5 29.25a1.25 1.25 0 0 1-1.25 1.25A1.25 1.25 0 0 1 49 29.25 1.25 1.25 0 0 1 50.25 28a1.25 1.25 0 0 1 1.25 1.25zM51.5 32.75A1.25 1.25 0 0 1 50.25 34 1.25 1.25 0 0 1 49 32.75a1.25 1.25 0 0 1 1.25-1.25 1.25 1.25 0 0 1 1.25 1.25zM51.5 36.25a1.25 1.25 0 0 1-1.25 1.25A1.25 1.25 0 0 1 49 36.25 1.25 1.25 0 0 1 50.25 35a1.25 1.25 0 0 1 1.25 1.25zM51.5 39.75A1.25 1.25 0 0 1 50.25 41 1.25 1.25 0 0 1 49 39.75a1.25 1.25 0 0 1 1.25-1.25 1.25 1.25 0 0 1 1.25 1.25zM51.5 43.25a1.25 1.25 0 0 1-1.25 1.25A1.25 1.25 0 0 1 49 43.25 1.25 1.25 0 0 1 50.25 42a1.25 1.25 0 0 1 1.25 1.25zM51.5 46.75A1.25 1.25 0 0 1 50.25 48 1.25 1.25 0 0 1 49 46.75a1.25 1.25 0 0 1 1.25-1.25 1.25 1.25 0 0 1 1.25 1.25zM51.5 50.25a1.25 1.25 0 0 1-1.25 1.25A1.25 1.25 0 0 1 49 50.25 1.25 1.25 0 0 1 50.25 49a1.25 1.25 0 0 1 1.25 1.25zM51.5 53.75A1.25 1.25 0 0 1 50.25 55 1.25 1.25 0 0 1 49 53.75a1.25 1.25 0 0 1 1.25-1.25 1.25 1.25 0 0 1 1.25 1.25zM51.5 57.25a1.25 1.25 0 0 1-1.25 1.25A1.25 1.25 0 0 1 49 57.25 1.25 1.25 0 0 1 50.25 56a1.25 1.25 0 0 1 1.25 1.25zM51.5 60.75A1.25 1.25 0 0 1 50.25 62 1.25 1.25 0 0 1 49 60.75a1.25 1.25 0 0 1 1.25-1.25 1.25 1.25 0 0 1 1.25 1.25zM51.5 67.75A1.25 1.25 0 0 1 50.25 69 1.25 1.25 0 0 1 49 67.75a1.25 1.25 0 0 1 1.25-1.25 1.25 1.25 0 0 1 1.25 1.25zM51.5 71.25a1.25 1.25 0 0 1-1.25 1.25A1.25 1.25 0 0 1 49 71.25 1.25 1.25 0 0 1 50.25 70a1.25 1.25 0 0 1 1.25 1.25zM51.5 74.75A1.25 1.25 0 0 1 50.25 76 1.25 1.25 0 0 1 49 74.75a1.25 1.25 0 0 1 1.25-1.25 1.25 1.25 0 0 1 1.25 1.25zM51.5 78.25a1.25 1.25 0 0 1-1.25 1.25A1.25 1.25 0 0 1 49 78.25 1.25 1.25 0 0 1 50.25 77a1.25 1.25 0 0 1 1.25 1.25zM51.5 81.75A1.25 1.25 0 0 1 50.25 83 1.25 1.25 0 0 1 49 81.75a1.25 1.25 0 0 1 1.25-1.25 1.25 1.25 0 0 1 1.25 1.25zM51.5 85.25a1.25 1.25 0 0 1-1.25 1.25A1.25 1.25 0 0 1 49 85.25 1.25 1.25 0 0 1 50.25 84a1.25 1.25 0 0 1 1.25 1.25zM55 22.25a1.25 1.25 0 0 1-1.25 1.25 1.25 1.25 0 0 1-1.25-1.25A1.25 1.25 0 0 1 53.75 21 1.25 1.25 0 0 1 55 22.25zM55 25.75A1.25 1.25 0 0 1 53.75 27a1.25 1.25 0 0 1-1.25-1.25 1.25 1.25 0 0 1 1.25-1.25A1.25 1.25 0 0 1 55 25.75zM55 29.25a1.25 1.25 0 0 1-1.25 1.25 1.25 1.25 0 0 1-1.25-1.25A1.25 1.25 0 0 1 53.75 28 1.25 1.25 0 0 1 55 29.25zM55 32.75A1.25 1.25 0 0 1 53.75 34a1.25 1.25 0 0 1-1.25-1.25 1.25 1.25 0 0 1 1.25-1.25A1.25 1.25 0 0 1 55 32.75zM55 36.25a1.25 1.25 0 0 1-1.25 1.25 1.25 1.25 0 0 1-1.25-1.25A1.25 1.25 0 0 1 53.75 35 1.25 1.25 0 0 1 55 36.25zM55 39.75A1.25 1.25 0 0 1 53.75 41a1.25 1.25 0 0 1-1.25-1.25 1.25 1.25 0 0 1 1.25-1.25A1.25 1.25 0 0 1 55 39.75zM55 43.25a1.25 1.25 0 0 1-1.25 1.25 1.25 1.25 0 0 1-1.25-1.25A1.25 1.25 0 0 1 53.75 42 1.25 1.25 0 0 1 55 43.25zM55 46.75A1.25 1.25 0 0 1 53.75 48a1.25 1.25 0 0 1-1.25-1.25 1.25 1.25 0 0 1 1.25-1.25A1.25 1.25 0 0 1 55 46.75zM55 50.25a1.25 1.25 0 0 1-1.25 1.25 1.25 1.25 0 0 1-1.25-1.25A1.25 1.25 0 0 1 53.75 49 1.25 1.25 0 0 1 55 50.25zM55 53.75A1.25 1.25 0 0 1 53.75 55a1.25 1.25 0 0 1-1.25-1.25 1.25 1.25 0 0 1 1.25-1.25A1.25 1.25 0 0 1 55 53.75zM55 57.25a1.25 1.25 0 0 1-1.25 1.25 1.25 1.25 0 0 1-1.25-1.25A1.25 1.25 0 0 1 53.75 56 1.25 1.25 0 0 1 55 57.25zM55 60.75A1.25 1.25 0 0 1 53.75 62a1.25 1.25 0 0 1-1.25-1.25 1.25 1.25 0 0 1 1.25-1.25A1.25 1.25 0 0 1 55 60.75zM55 64.25a1.25 1.25 0 0 1-1.25 1.25 1.25 1.25 0 0 1-1.25-1.25A1.25 1.25 0 0 1 53.75 63 1.25 1.25 0 0 1 55 64.25zM55 67.75A1.25 1.25 0 0 1 53.75 69a1.25 1.25 0 0 1-1.25-1.25 1.25 1.25 0 0 1 1.25-1.25A1.25 1.25 0 0 1 55 67.75zM55 71.25a1.25 1.25 0 0 1-1.25 1.25 1.25 1.25 0 0 1-1.25-1.25A1.25 1.25 0 0 1 53.75 70 1.25 1.25 0 0 1 55 71.25zM55 74.75A1.25 1.25 0 0 1 53.75 76a1.25 1.25 0 0 1-1.25-1.25 1.25 1.25 0 0 1 1.25-1.25A1.25 1.25 0 0 1 55 74.75zM55 78.25a1.25 1.25 0 0 1-1.25 1.25 1.25 1.25 0 0 1-1.25-1.25A1.25 1.25 0 0 1 53.75 77 1.25 1.25 0 0 1 55 78.25zM55 81.75A1.25 1.25 0 0 1 53.75 83a1.25 1.25 0 0 1-1.25-1.25 1.25 1.25 0 0 1 1.25-1.25A1.25 1.25 0 0 1 55 81.75zM55 85.25a1.25 1.25 0 0 1-1.25 1.25 1.25 1.25 0 0 1-1.25-1.25A1.25 1.25 0 0 1 53.75 84 1.25 1.25 0 0 1 55 85.25zM58.5 22.25a1.25 1.25 0 0 1-1.25 1.25A1.25 1.25 0 0 1 56 22.25 1.25 1.25 0 0 1 57.25 21a1.25 1.25 0 0 1 1.25 1.25zM58.5 25.75A1.25 1.25 0 0 1 57.25 27 1.25 1.25 0 0 1 56 25.75a1.25 1.25 0 0 1 1.25-1.25 1.25 1.25 0 0 1 1.25 1.25zM58.5 29.25a1.25 1.25 0 0 1-1.25 1.25A1.25 1.25 0 0 1 56 29.25 1.25 1.25 0 0 1 57.25 28a1.25 1.25 0 0 1 1.25 1.25zM58.5 32.75A1.25 1.25 0 0 1 57.25 34 1.25 1.25 0 0 1 56 32.75a1.25 1.25 0 0 1 1.25-1.25 1.25 1.25 0 0 1 1.25 1.25zM58.5 36.25a1.25 1.25 0 0 1-1.25 1.25A1.25 1.25 0 0 1 56 36.25 1.25 1.25 0 0 1 57.25 35a1.25 1.25 0 0 1 1.25 1.25zM58.5 39.75A1.25 1.25 0 0 1 57.25 41 1.25 1.25 0 0 1 56 39.75a1.25 1.25 0 0 1 1.25-1.25 1.25 1.25 0 0 1 1.25 1.25zM58.5 43.25a1.25 1.25 0 0 1-1.25 1.25A1.25 1.25 0 0 1 56 43.25 1.25 1.25 0 0 1 57.25 42a1.25 1.25 0 0 1 1.25 1.25zM58.5 46.75A1.25 1.25 0 0 1 57.25 48 1.25 1.25 0 0 1 56 46.75a1.25 1.25 0 0 1 1.25-1.25 1.25 1.25 0 0 1 1.25 1.25zM58.5 50.25a1.25 1.25 0 0 1-1.25 1.25A1.25 1.25 0 0 1 56 50.25 1.25 1.25 0 0 1 57.25 49a1.25 1.25 0 0 1 1.25 1.25zM58.5 53.75A1.25 1.25 0 0 1 57.25 55 1.25 1.25 0 0 1 56 53.75a1.25 1.25 0 0 1 1.25-1.25 1.25 1.25 0 0 1 1.25 1.25zM58.5 64.25a1.25 1.25 0 0 1-1.25 1.25A1.25 1.25 0 0 1 56 64.25 1.25 1.25 0 0 1 57.25 63a1.25 1.25 0 0 1 1.25 1.25zM58.5 67.75A1.25 1.25 0 0 1 57.25 69 1.25 1.25 0 0 1 56 67.75a1.25 1.25 0 0 1 1.25-1.25 1.25 1.25 0 0 1 1.25 1.25zM58.5 71.25a1.25 1.25 0 0 1-1.25 1.25A1.25 1.25 0 0 1 56 71.25 1.25 1.25 0 0 1 57.25 70a1.25 1.25 0 0 1 1.25 1.25zM58.5 74.75A1.25 1.25 0 0 1 57.25 76 1.25 1.25 0 0 1 56 74.75a1.25 1.25 0 0 1 1.25-1.25 1.25 1.25 0 0 1 1.25 1.25zM58.5 78.25a1.25 1.25 0 0 1-1.25 1.25A1.25 1.25 0 0 1 56 78.25 1.25 1.25 0 0 1 57.25 77a1.25 1.25 0 0 1 1.25 1.25zM58.5 81.75A1.25 1.25 0 0 1 57.25 83 1.25 1.25 0 0 1 56 81.75a1.25 1.25 0 0 1 1.25-1.25 1.25 1.25 0 0 1 1.25 1.25zM58.5 85.25a1.25 1.25 0 0 1-1.25 1.25A1.25 1.25 0 0 1 56 85.25 1.25 1.25 0 0 1 57.25 84a1.25 1.25 0 0 1 1.25 1.25zM62 15.25a1.25 1.25 0 0 1-1.25 1.25 1.25 1.25 0 0 1-1.25-1.25A1.25 1.25 0 0 1 60.75 14 1.25 1.25 0 0 1 62 15.25zM62 18.75A1.25 1.25 0 0 1 60.75 20a1.25 1.25 0 0 1-1.25-1.25 1.25 1.25 0 0 1 1.25-1.25A1.25 1.25 0 0 1 62 18.75zM62 22.25a1.25 1.25 0 0 1-1.25 1.25 1.25 1.25 0 0 1-1.25-1.25A1.25 1.25 0 0 1 60.75 21 1.25 1.25 0 0 1 62 22.25zM62 25.75A1.25 1.25 0 0 1 60.75 27a1.25 1.25 0 0 1-1.25-1.25 1.25 1.25 0 0 1 1.25-1.25A1.25 1.25 0 0 1 62 25.75zM62 29.25a1.25 1.25 0 0 1-1.25 1.25 1.25 1.25 0 0 1-1.25-1.25A1.25 1.25 0 0 1 60.75 28 1.25 1.25 0 0 1 62 29.25zM62 32.75A1.25 1.25 0 0 1 60.75 34a1.25 1.25 0 0 1-1.25-1.25 1.25 1.25 0 0 1 1.25-1.25A1.25 1.25 0 0 1 62 32.75zM62 36.25a1.25 1.25 0 0 1-1.25 1.25 1.25 1.25 0 0 1-1.25-1.25A1.25 1.25 0 0 1 60.75 35 1.25 1.25 0 0 1 62 36.25zM62 39.75A1.25 1.25 0 0 1 60.75 41a1.25 1.25 0 0 1-1.25-1.25 1.25 1.25 0 0 1 1.25-1.25A1.25 1.25 0 0 1 62 39.75zM62 43.25a1.25 1.25 0 0 1-1.25 1.25 1.25 1.25 0 0 1-1.25-1.25A1.25 1.25 0 0 1 60.75 42 1.25 1.25 0 0 1 62 43.25zM62 46.75A1.25 1.25 0 0 1 60.75 48a1.25 1.25 0 0 1-1.25-1.25 1.25 1.25 0 0 1 1.25-1.25A1.25 1.25 0 0 1 62 46.75zM62 50.25a1.25 1.25 0 0 1-1.25 1.25 1.25 1.25 0 0 1-1.25-1.25A1.25 1.25 0 0 1 60.75 49 1.25 1.25 0 0 1 62 50.25zM62 60.75A1.25 1.25 0 0 1 60.75 62a1.25 1.25 0 0 1-1.25-1.25 1.25 1.25 0 0 1 1.25-1.25A1.25 1.25 0 0 1 62 60.75zM62 64.25a1.25 1.25 0 0 1-1.25 1.25 1.25 1.25 0 0 1-1.25-1.25A1.25 1.25 0 0 1 60.75 63 1.25 1.25 0 0 1 62 64.25zM62 67.75A1.25 1.25 0 0 1 60.75 69a1.25 1.25 0 0 1-1.25-1.25 1.25 1.25 0 0 1 1.25-1.25A1.25 1.25 0 0 1 62 67.75zM62 71.25a1.25 1.25 0 0 1-1.25 1.25 1.25 1.25 0 0 1-1.25-1.25A1.25 1.25 0 0 1 60.75 70 1.25 1.25 0 0 1 62 71.25zM62 74.75A1.25 1.25 0 0 1 60.75 76a1.25 1.25 0 0 1-1.25-1.25 1.25 1.25 0 0 1 1.25-1.25A1.25 1.25 0 0 1 62 74.75zM62 78.25a1.25 1.25 0 0 1-1.25 1.25 1.25 1.25 0 0 1-1.25-1.25A1.25 1.25 0 0 1 60.75 77 1.25 1.25 0 0 1 62 78.25zM62 81.75A1.25 1.25 0 0 1 60.75 83a1.25 1.25 0 0 1-1.25-1.25 1.25 1.25 0 0 1 1.25-1.25A1.25 1.25 0 0 1 62 81.75zM62 85.25a1.25 1.25 0 0 1-1.25 1.25 1.25 1.25 0 0 1-1.25-1.25A1.25 1.25 0 0 1 60.75 84 1.25 1.25 0 0 1 62 85.25zM62 88.75A1.25 1.25 0 0 1 60.75 90a1.25 1.25 0 0 1-1.25-1.25 1.25 1.25 0 0 1 1.25-1.25A1.25 1.25 0 0 1 62 88.75zM65.5 11.75A1.25 1.25 0 0 1 64.25 13 1.25 1.25 0 0 1 63 11.75a1.25 1.25 0 0 1 1.25-1.25 1.25 1.25 0 0 1 1.25 1.25zM65.5 15.25a1.25 1.25 0 0 1-1.25 1.25A1.25 1.25 0 0 1 63 15.25 1.25 1.25 0 0 1 64.25 14a1.25 1.25 0 0 1 1.25 1.25zM65.5 18.75A1.25 1.25 0 0 1 64.25 20 1.25 1.25 0 0 1 63 18.75a1.25 1.25 0 0 1 1.25-1.25 1.25 1.25 0 0 1 1.25 1.25zM65.5 22.25a1.25 1.25 0 0 1-1.25 1.25A1.25 1.25 0 0 1 63 22.25 1.25 1.25 0 0 1 64.25 21a1.25 1.25 0 0 1 1.25 1.25zM65.5 25.75A1.25 1.25 0 0 1 64.25 27 1.25 1.25 0 0 1 63 25.75a1.25 1.25 0 0 1 1.25-1.25 1.25 1.25 0 0 1 1.25 1.25zM65.5 29.25a1.25 1.25 0 0 1-1.25 1.25A1.25 1.25 0 0 1 63 29.25 1.25 1.25 0 0 1 64.25 28a1.25 1.25 0 0 1 1.25 1.25zM65.5 32.75A1.25 1.25 0 0 1 64.25 34 1.25 1.25 0 0 1 63 32.75a1.25 1.25 0 0 1 1.25-1.25 1.25 1.25 0 0 1 1.25 1.25zM65.5 36.25a1.25 1.25 0 0 1-1.25 1.25A1.25 1.25 0 0 1 63 36.25 1.25 1.25 0 0 1 64.25 35a1.25 1.25 0 0 1 1.25 1.25zM65.5 39.75A1.25 1.25 0 0 1 64.25 41 1.25 1.25 0 0 1 63 39.75a1.25 1.25 0 0 1 1.25-1.25 1.25 1.25 0 0 1 1.25 1.25zM65.5 43.25a1.25 1.25 0 0 1-1.25 1.25A1.25 1.25 0 0 1 63 43.25 1.25 1.25 0 0 1 64.25 42a1.25 1.25 0 0 1 1.25 1.25zM65.5 46.75A1.25 1.25 0 0 1 64.25 48 1.25 1.25 0 0 1 63 46.75a1.25 1.25 0 0 1 1.25-1.25 1.25 1.25 0 0 1 1.25 1.25zM65.5 50.25a1.25 1.25 0 0 1-1.25 1.25A1.25 1.25 0 0 1 63 50.25 1.25 1.25 0 0 1 64.25 49a1.25 1.25 0 0 1 1.25 1.25zM65.5 60.75A1.25 1.25 0 0 1 64.25 62 1.25 1.25 0 0 1 63 60.75a1.25 1.25 0 0 1 1.25-1.25 1.25 1.25 0 0 1 1.25 1.25zM65.5 64.25a1.25 1.25 0 0 1-1.25 1.25A1.25 1.25 0 0 1 63 64.25 1.25 1.25 0 0 1 64.25 63a1.25 1.25 0 0 1 1.25 1.25zM65.5 67.75A1.25 1.25 0 0 1 64.25 69 1.25 1.25 0 0 1 63 67.75a1.25 1.25 0 0 1 1.25-1.25 1.25 1.25 0 0 1 1.25 1.25zM65.5 71.25a1.25 1.25 0 0 1-1.25 1.25A1.25 1.25 0 0 1 63 71.25 1.25 1.25 0 0 1 64.25 70a1.25 1.25 0 0 1 1.25 1.25zM65.5 74.75A1.25 1.25 0 0 1 64.25 76 1.25 1.25 0 0 1 63 74.75a1.25 1.25 0 0 1 1.25-1.25 1.25 1.25 0 0 1 1.25 1.25zM65.5 78.25a1.25 1.25 0 0 1-1.25 1.25A1.25 1.25 0 0 1 63 78.25 1.25 1.25 0 0 1 64.25 77a1.25 1.25 0 0 1 1.25 1.25zM65.5 81.75A1.25 1.25 0 0 1 64.25 83 1.25 1.25 0 0 1 63 81.75a1.25 1.25 0 0 1 1.25-1.25 1.25 1.25 0 0 1 1.25 1.25zM65.5 85.25a1.25 1.25 0 0 1-1.25 1.25A1.25 1.25 0 0 1 63 85.25 1.25 1.25 0 0 1 64.25 84a1.25 1.25 0 0 1 1.25 1.25zM65.5 88.75A1.25 1.25 0 0 1 64.25 90 1.25 1.25 0 0 1 63 88.75a1.25 1.25 0 0 1 1.25-1.25 1.25 1.25 0 0 1 1.25 1.25zM69 8.25a1.25 1.25 0 0 1-1.25 1.25 1.25 1.25 0 0 1-1.25-1.25A1.25 1.25 0 0 1 67.75 7 1.25 1.25 0 0 1 69 8.25zM69 11.75A1.25 1.25 0 0 1 67.75 13a1.25 1.25 0 0 1-1.25-1.25 1.25 1.25 0 0 1 1.25-1.25A1.25 1.25 0 0 1 69 11.75zM69 15.25a1.25 1.25 0 0 1-1.25 1.25 1.25 1.25 0 0 1-1.25-1.25A1.25 1.25 0 0 1 67.75 14 1.25 1.25 0 0 1 69 15.25zM69 18.75A1.25 1.25 0 0 1 67.75 20a1.25 1.25 0 0 1-1.25-1.25 1.25 1.25 0 0 1 1.25-1.25A1.25 1.25 0 0 1 69 18.75zM69 22.25a1.25 1.25 0 0 1-1.25 1.25 1.25 1.25 0 0 1-1.25-1.25A1.25 1.25 0 0 1 67.75 21 1.25 1.25 0 0 1 69 22.25zM69 25.75A1.25 1.25 0 0 1 67.75 27a1.25 1.25 0 0 1-1.25-1.25 1.25 1.25 0 0 1 1.25-1.25A1.25 1.25 0 0 1 69 25.75zM69 29.25a1.25 1.25 0 0 1-1.25 1.25 1.25 1.25 0 0 1-1.25-1.25A1.25 1.25 0 0 1 67.75 28 1.25 1.25 0 0 1 69 29.25zM69 32.75A1.25 1.25 0 0 1 67.75 34a1.25 1.25 0 0 1-1.25-1.25 1.25 1.25 0 0 1 1.25-1.25A1.25 1.25 0 0 1 69 32.75zM69 36.25a1.25 1.25 0 0 1-1.25 1.25 1.25 1.25 0 0 1-1.25-1.25A1.25 1.25 0 0 1 67.75 35 1.25 1.25 0 0 1 69 36.25zM69 39.75A1.25 1.25 0 0 1 67.75 41a1.25 1.25 0 0 1-1.25-1.25 1.25 1.25 0 0 1 1.25-1.25A1.25 1.25 0 0 1 69 39.75zM69 43.25a1.25 1.25 0 0 1-1.25 1.25 1.25 1.25 0 0 1-1.25-1.25A1.25 1.25 0 0 1 67.75 42 1.25 1.25 0 0 1 69 43.25zM69 46.75A1.25 1.25 0 0 1 67.75 48a1.25 1.25 0 0 1-1.25-1.25 1.25 1.25 0 0 1 1.25-1.25A1.25 1.25 0 0 1 69 46.75zM69 50.25a1.25 1.25 0 0 1-1.25 1.25 1.25 1.25 0 0 1-1.25-1.25A1.25 1.25 0 0 1 67.75 49 1.25 1.25 0 0 1 69 50.25zM69 60.75A1.25 1.25 0 0 1 67.75 62a1.25 1.25 0 0 1-1.25-1.25 1.25 1.25 0 0 1 1.25-1.25A1.25 1.25 0 0 1 69 60.75zM69 64.25a1.25 1.25 0 0 1-1.25 1.25 1.25 1.25 0 0 1-1.25-1.25A1.25 1.25 0 0 1 67.75 63 1.25 1.25 0 0 1 69 64.25zM69 67.75A1.25 1.25 0 0 1 67.75 69a1.25 1.25 0 0 1-1.25-1.25 1.25 1.25 0 0 1 1.25-1.25A1.25 1.25 0 0 1 69 67.75zM69 71.25a1.25 1.25 0 0 1-1.25 1.25 1.25 1.25 0 0 1-1.25-1.25A1.25 1.25 0 0 1 67.75 70 1.25 1.25 0 0 1 69 71.25zM69 74.75A1.25 1.25 0 0 1 67.75 76a1.25 1.25 0 0 1-1.25-1.25 1.25 1.25 0 0 1 1.25-1.25A1.25 1.25 0 0 1 69 74.75zM69 78.25a1.25 1.25 0 0 1-1.25 1.25 1.25 1.25 0 0 1-1.25-1.25A1.25 1.25 0 0 1 67.75 77 1.25 1.25 0 0 1 69 78.25zM69 81.75A1.25 1.25 0 0 1 67.75 83a1.25 1.25 0 0 1-1.25-1.25 1.25 1.25 0 0 1 1.25-1.25A1.25 1.25 0 0 1 69 81.75zM69 85.25a1.25 1.25 0 0 1-1.25 1.25 1.25 1.25 0 0 1-1.25-1.25A1.25 1.25 0 0 1 67.75 84 1.25 1.25 0 0 1 69 85.25zM69 88.75A1.25 1.25 0 0 1 67.75 90a1.25 1.25 0 0 1-1.25-1.25 1.25 1.25 0 0 1 1.25-1.25A1.25 1.25 0 0 1 69 88.75zM72.5 8.25a1.25 1.25 0 0 1-1.25 1.25A1.25 1.25 0 0 1 70 8.25 1.25 1.25 0 0 1 71.25 7a1.25 1.25 0 0 1 1.25 1.25zM72.5 11.75A1.25 1.25 0 0 1 71.25 13 1.25 1.25 0 0 1 70 11.75a1.25 1.25 0 0 1 1.25-1.25 1.25 1.25 0 0 1 1.25 1.25zM72.5 15.25a1.25 1.25 0 0 1-1.25 1.25A1.25 1.25 0 0 1 70 15.25 1.25 1.25 0 0 1 71.25 14a1.25 1.25 0 0 1 1.25 1.25zM72.5 18.75A1.25 1.25 0 0 1 71.25 20 1.25 1.25 0 0 1 70 18.75a1.25 1.25 0 0 1 1.25-1.25 1.25 1.25 0 0 1 1.25 1.25zM72.5 22.25a1.25 1.25 0 0 1-1.25 1.25A1.25 1.25 0 0 1 70 22.25 1.25 1.25 0 0 1 71.25 21a1.25 1.25 0 0 1 1.25 1.25zM72.5 25.75A1.25 1.25 0 0 1 71.25 27 1.25 1.25 0 0 1 70 25.75a1.25 1.25 0 0 1 1.25-1.25 1.25 1.25 0 0 1 1.25 1.25zM72.5 29.25a1.25 1.25 0 0 1-1.25 1.25A1.25 1.25 0 0 1 70 29.25 1.25 1.25 0 0 1 71.25 28a1.25 1.25 0 0 1 1.25 1.25zM72.5 32.75A1.25 1.25 0 0 1 71.25 34 1.25 1.25 0 0 1 70 32.75a1.25 1.25 0 0 1 1.25-1.25 1.25 1.25 0 0 1 1.25 1.25zM72.5 36.25a1.25 1.25 0 0 1-1.25 1.25A1.25 1.25 0 0 1 70 36.25 1.25 1.25 0 0 1 71.25 35a1.25 1.25 0 0 1 1.25 1.25zM72.5 39.75A1.25 1.25 0 0 1 71.25 41 1.25 1.25 0 0 1 70 39.75a1.25 1.25 0 0 1 1.25-1.25 1.25 1.25 0 0 1 1.25 1.25zM72.5 43.25a1.25 1.25 0 0 1-1.25 1.25A1.25 1.25 0 0 1 70 43.25 1.25 1.25 0 0 1 71.25 42a1.25 1.25 0 0 1 1.25 1.25zM72.5 46.75A1.25 1.25 0 0 1 71.25 48 1.25 1.25 0 0 1 70 46.75a1.25 1.25 0 0 1 1.25-1.25 1.25 1.25 0 0 1 1.25 1.25zM72.5 50.25a1.25 1.25 0 0 1-1.25 1.25A1.25 1.25 0 0 1 70 50.25 1.25 1.25 0 0 1 71.25 49a1.25 1.25 0 0 1 1.25 1.25zM72.5 60.75A1.25 1.25 0 0 1 71.25 62 1.25 1.25 0 0 1 70 60.75a1.25 1.25 0 0 1 1.25-1.25 1.25 1.25 0 0 1 1.25 1.25zM72.5 64.25a1.25 1.25 0 0 1-1.25 1.25A1.25 1.25 0 0 1 70 64.25 1.25 1.25 0 0 1 71.25 63a1.25 1.25 0 0 1 1.25 1.25zM72.5 67.75A1.25 1.25 0 0 1 71.25 69 1.25 1.25 0 0 1 70 67.75a1.25 1.25 0 0 1 1.25-1.25 1.25 1.25 0 0 1 1.25 1.25zM72.5 71.25a1.25 1.25 0 0 1-1.25 1.25A1.25 1.25 0 0 1 70 71.25 1.25 1.25 0 0 1 71.25 70a1.25 1.25 0 0 1 1.25 1.25zM72.5 74.75A1.25 1.25 0 0 1 71.25 76 1.25 1.25 0 0 1 70 74.75a1.25 1.25 0 0 1 1.25-1.25 1.25 1.25 0 0 1 1.25 1.25zM72.5 78.25a1.25 1.25 0 0 1-1.25 1.25A1.25 1.25 0 0 1 70 78.25 1.25 1.25 0 0 1 71.25 77a1.25 1.25 0 0 1 1.25 1.25zM72.5 81.75A1.25 1.25 0 0 1 71.25 83 1.25 1.25 0 0 1 70 81.75a1.25 1.25 0 0 1 1.25-1.25 1.25 1.25 0 0 1 1.25 1.25zM72.5 85.25a1.25 1.25 0 0 1-1.25 1.25A1.25 1.25 0 0 1 70 85.25 1.25 1.25 0 0 1 71.25 84a1.25 1.25 0 0 1 1.25 1.25zM76 4.75A1.25 1.25 0 0 1 74.75 6a1.25 1.25 0 0 1-1.25-1.25 1.25 1.25 0 0 1 1.25-1.25A1.25 1.25 0 0 1 76 4.75zM76 8.25a1.25 1.25 0 0 1-1.25 1.25 1.25 1.25 0 0 1-1.25-1.25A1.25 1.25 0 0 1 74.75 7 1.25 1.25 0 0 1 76 8.25zM76 11.75A1.25 1.25 0 0 1 74.75 13a1.25 1.25 0 0 1-1.25-1.25 1.25 1.25 0 0 1 1.25-1.25A1.25 1.25 0 0 1 76 11.75zM76 15.25a1.25 1.25 0 0 1-1.25 1.25 1.25 1.25 0 0 1-1.25-1.25A1.25 1.25 0 0 1 74.75 14 1.25 1.25 0 0 1 76 15.25zM76 18.75A1.25 1.25 0 0 1 74.75 20a1.25 1.25 0 0 1-1.25-1.25 1.25 1.25 0 0 1 1.25-1.25A1.25 1.25 0 0 1 76 18.75zM76 22.25a1.25 1.25 0 0 1-1.25 1.25 1.25 1.25 0 0 1-1.25-1.25A1.25 1.25 0 0 1 74.75 21 1.25 1.25 0 0 1 76 22.25zM76 25.75A1.25 1.25 0 0 1 74.75 27a1.25 1.25 0 0 1-1.25-1.25 1.25 1.25 0 0 1 1.25-1.25A1.25 1.25 0 0 1 76 25.75zM76 29.25a1.25 1.25 0 0 1-1.25 1.25 1.25 1.25 0 0 1-1.25-1.25A1.25 1.25 0 0 1 74.75 28 1.25 1.25 0 0 1 76 29.25zM76 32.75A1.25 1.25 0 0 1 74.75 34a1.25 1.25 0 0 1-1.25-1.25 1.25 1.25 0 0 1 1.25-1.25A1.25 1.25 0 0 1 76 32.75zM76 36.25a1.25 1.25 0 0 1-1.25 1.25 1.25 1.25 0 0 1-1.25-1.25A1.25 1.25 0 0 1 74.75 35 1.25 1.25 0 0 1 76 36.25zM76 39.75A1.25 1.25 0 0 1 74.75 41a1.25 1.25 0 0 1-1.25-1.25 1.25 1.25 0 0 1 1.25-1.25A1.25 1.25 0 0 1 76 39.75zM76 43.25a1.25 1.25 0 0 1-1.25 1.25 1.25 1.25 0 0 1-1.25-1.25A1.25 1.25 0 0 1 74.75 42 1.25 1.25 0 0 1 76 43.25zM76 46.75A1.25 1.25 0 0 1 74.75 48a1.25 1.25 0 0 1-1.25-1.25 1.25 1.25 0 0 1 1.25-1.25A1.25 1.25 0 0 1 76 46.75zM76 60.75A1.25 1.25 0 0 1 74.75 62a1.25 1.25 0 0 1-1.25-1.25 1.25 1.25 0 0 1 1.25-1.25A1.25 1.25 0 0 1 76 60.75zM76 64.25a1.25 1.25 0 0 1-1.25 1.25 1.25 1.25 0 0 1-1.25-1.25A1.25 1.25 0 0 1 74.75 63 1.25 1.25 0 0 1 76 64.25zM76 67.75A1.25 1.25 0 0 1 74.75 69a1.25 1.25 0 0 1-1.25-1.25 1.25 1.25 0 0 1 1.25-1.25A1.25 1.25 0 0 1 76 67.75zM76 71.25a1.25 1.25 0 0 1-1.25 1.25 1.25 1.25 0 0 1-1.25-1.25A1.25 1.25 0 0 1 74.75 70 1.25 1.25 0 0 1 76 71.25zM76 74.75A1.25 1.25 0 0 1 74.75 76a1.25 1.25 0 0 1-1.25-1.25 1.25 1.25 0 0 1 1.25-1.25A1.25 1.25 0 0 1 76 74.75zM76 78.25a1.25 1.25 0 0 1-1.25 1.25 1.25 1.25 0 0 1-1.25-1.25A1.25 1.25 0 0 1 74.75 77 1.25 1.25 0 0 1 76 78.25zM79.5 8.25a1.25 1.25 0 0 1-1.25 1.25A1.25 1.25 0 0 1 77 8.25 1.25 1.25 0 0 1 78.25 7a1.25 1.25 0 0 1 1.25 1.25zM79.5 11.75A1.25 1.25 0 0 1 78.25 13 1.25 1.25 0 0 1 77 11.75a1.25 1.25 0 0 1 1.25-1.25 1.25 1.25 0 0 1 1.25 1.25zM79.5 15.25a1.25 1.25 0 0 1-1.25 1.25A1.25 1.25 0 0 1 77 15.25 1.25 1.25 0 0 1 78.25 14a1.25 1.25 0 0 1 1.25 1.25zM79.5 18.75A1.25 1.25 0 0 1 78.25 20 1.25 1.25 0 0 1 77 18.75a1.25 1.25 0 0 1 1.25-1.25 1.25 1.25 0 0 1 1.25 1.25zM79.5 22.25a1.25 1.25 0 0 1-1.25 1.25A1.25 1.25 0 0 1 77 22.25 1.25 1.25 0 0 1 78.25 21a1.25 1.25 0 0 1 1.25 1.25zM79.5 25.75A1.25 1.25 0 0 1 78.25 27 1.25 1.25 0 0 1 77 25.75a1.25 1.25 0 0 1 1.25-1.25 1.25 1.25 0 0 1 1.25 1.25zM79.5 29.25a1.25 1.25 0 0 1-1.25 1.25A1.25 1.25 0 0 1 77 29.25 1.25 1.25 0 0 1 78.25 28a1.25 1.25 0 0 1 1.25 1.25zM79.5 32.75A1.25 1.25 0 0 1 78.25 34 1.25 1.25 0 0 1 77 32.75a1.25 1.25 0 0 1 1.25-1.25 1.25 1.25 0 0 1 1.25 1.25zM79.5 36.25a1.25 1.25 0 0 1-1.25 1.25A1.25 1.25 0 0 1 77 36.25 1.25 1.25 0 0 1 78.25 35a1.25 1.25 0 0 1 1.25 1.25zM79.5 39.75A1.25 1.25 0 0 1 78.25 41 1.25 1.25 0 0 1 77 39.75a1.25 1.25 0 0 1 1.25-1.25 1.25 1.25 0 0 1 1.25 1.25zM79.5 43.25a1.25 1.25 0 0 1-1.25 1.25A1.25 1.25 0 0 1 77 43.25 1.25 1.25 0 0 1 78.25 42a1.25 1.25 0 0 1 1.25 1.25zM79.5 60.75A1.25 1.25 0 0 1 78.25 62 1.25 1.25 0 0 1 77 60.75a1.25 1.25 0 0 1 1.25-1.25 1.25 1.25 0 0 1 1.25 1.25zM79.5 64.25a1.25 1.25 0 0 1-1.25 1.25A1.25 1.25 0 0 1 77 64.25 1.25 1.25 0 0 1 78.25 63a1.25 1.25 0 0 1 1.25 1.25zM79.5 67.75A1.25 1.25 0 0 1 78.25 69 1.25 1.25 0 0 1 77 67.75a1.25 1.25 0 0 1 1.25-1.25 1.25 1.25 0 0 1 1.25 1.25zM79.5 71.25a1.25 1.25 0 0 1-1.25 1.25A1.25 1.25 0 0 1 77 71.25 1.25 1.25 0 0 1 78.25 70a1.25 1.25 0 0 1 1.25 1.25zM79.5 74.75A1.25 1.25 0 0 1 78.25 76 1.25 1.25 0 0 1 77 74.75a1.25 1.25 0 0 1 1.25-1.25 1.25 1.25 0 0 1 1.25 1.25zM83 11.75A1.25 1.25 0 0 1 81.75 13a1.25 1.25 0 0 1-1.25-1.25 1.25 1.25 0 0 1 1.25-1.25A1.25 1.25 0 0 1 83 11.75zM83 15.25a1.25 1.25 0 0 1-1.25 1.25 1.25 1.25 0 0 1-1.25-1.25A1.25 1.25 0 0 1 81.75 14 1.25 1.25 0 0 1 83 15.25zM83 18.75A1.25 1.25 0 0 1 81.75 20a1.25 1.25 0 0 1-1.25-1.25 1.25 1.25 0 0 1 1.25-1.25A1.25 1.25 0 0 1 83 18.75zM83 22.25a1.25 1.25 0 0 1-1.25 1.25 1.25 1.25 0 0 1-1.25-1.25A1.25 1.25 0 0 1 81.75 21 1.25 1.25 0 0 1 83 22.25zM83 25.75A1.25 1.25 0 0 1 81.75 27a1.25 1.25 0 0 1-1.25-1.25 1.25 1.25 0 0 1 1.25-1.25A1.25 1.25 0 0 1 83 25.75zM83 29.25a1.25 1.25 0 0 1-1.25 1.25 1.25 1.25 0 0 1-1.25-1.25A1.25 1.25 0 0 1 81.75 28 1.25 1.25 0 0 1 83 29.25zM83 32.75A1.25 1.25 0 0 1 81.75 34a1.25 1.25 0 0 1-1.25-1.25 1.25 1.25 0 0 1 1.25-1.25A1.25 1.25 0 0 1 83 32.75zM83 36.25a1.25 1.25 0 0 1-1.25 1.25 1.25 1.25 0 0 1-1.25-1.25A1.25 1.25 0 0 1 81.75 35 1.25 1.25 0 0 1 83 36.25zM83 39.75A1.25 1.25 0 0 1 81.75 41a1.25 1.25 0 0 1-1.25-1.25 1.25 1.25 0 0 1 1.25-1.25A1.25 1.25 0 0 1 83 39.75zM83 64.25a1.25 1.25 0 0 1-1.25 1.25 1.25 1.25 0 0 1-1.25-1.25A1.25 1.25 0 0 1 81.75 63 1.25 1.25 0 0 1 83 64.25zM83 67.75A1.25 1.25 0 0 1 81.75 69a1.25 1.25 0 0 1-1.25-1.25 1.25 1.25 0 0 1 1.25-1.25A1.25 1.25 0 0 1 83 67.75zM86.5 15.25a1.25 1.25 0 0 1-1.25 1.25A1.25 1.25 0 0 1 84 15.25 1.25 1.25 0 0 1 85.25 14a1.25 1.25 0 0 1 1.25 1.25zM86.5 18.75A1.25 1.25 0 0 1 85.25 20 1.25 1.25 0 0 1 84 18.75a1.25 1.25 0 0 1 1.25-1.25 1.25 1.25 0 0 1 1.25 1.25zM86.5 22.25a1.25 1.25 0 0 1-1.25 1.25A1.25 1.25 0 0 1 84 22.25 1.25 1.25 0 0 1 85.25 21a1.25 1.25 0 0 1 1.25 1.25zM86.5 25.75A1.25 1.25 0 0 1 85.25 27 1.25 1.25 0 0 1 84 25.75a1.25 1.25 0 0 1 1.25-1.25 1.25 1.25 0 0 1 1.25 1.25zM86.5 29.25a1.25 1.25 0 0 1-1.25 1.25A1.25 1.25 0 0 1 84 29.25 1.25 1.25 0 0 1 85.25 28a1.25 1.25 0 0 1 1.25 1.25zM86.5 32.75A1.25 1.25 0 0 1 85.25 34 1.25 1.25 0 0 1 84 32.75a1.25 1.25 0 0 1 1.25-1.25 1.25 1.25 0 0 1 1.25 1.25zM86.5 36.25a1.25 1.25 0 0 1-1.25 1.25A1.25 1.25 0 0 1 84 36.25 1.25 1.25 0 0 1 85.25 35a1.25 1.25 0 0 1 1.25 1.25zM86.5 39.75A1.25 1.25 0 0 1 85.25 41 1.25 1.25 0 0 1 84 39.75a1.25 1.25 0 0 1 1.25-1.25 1.25 1.25 0 0 1 1.25 1.25zM90 22.25a1.25 1.25 0 0 1-1.25 1.25 1.25 1.25 0 0 1-1.25-1.25A1.25 1.25 0 0 1 88.75 21 1.25 1.25 0 0 1 90 22.25zM90 25.75A1.25 1.25 0 0 1 88.75 27a1.25 1.25 0 0 1-1.25-1.25 1.25 1.25 0 0 1 1.25-1.25A1.25 1.25 0 0 1 90 25.75zM90 29.25a1.25 1.25 0 0 1-1.25 1.25 1.25 1.25 0 0 1-1.25-1.25A1.25 1.25 0 0 1 88.75 28 1.25 1.25 0 0 1 90 29.25zM90 32.75A1.25 1.25 0 0 1 88.75 34a1.25 1.25 0 0 1-1.25-1.25 1.25 1.25 0 0 1 1.25-1.25A1.25 1.25 0 0 1 90 32.75zM90 36.25a1.25 1.25 0 0 1-1.25 1.25 1.25 1.25 0 0 1-1.25-1.25A1.25 1.25 0 0 1 88.75 35 1.25 1.25 0 0 1 90 36.25zM90 39.75A1.25 1.25 0 0 1 88.75 41a1.25 1.25 0 0 1-1.25-1.25 1.25 1.25 0 0 1 1.25-1.25A1.25 1.25 0 0 1 90 39.75z"></path></g><!----></svg>